<?xml version="1.0" encoding="UTF-8"?>
<!-- Generator: visioncortex VTracer 0.6.3 -->
<svg version="1.1" xmlns="http://www.w3.org/2000/svg" width="1280" height="527">
<path d="M0 0 C422.4 0 844.8 0 1280 0 C1280 173.91 1280 347.82 1280 527 C857.6 527 435.2 527 0 527 C0 353.09 0 179.18 0 0 Z " fill="#FBFCFE" transform="translate(0,0)"/>
<path d="M0 0 C15.37 13.1 27.11 27.93 36.5 45.81 C36.97 46.7 37.44 47.59 37.93 48.5 C52.36 77.81 52.5 115.58 42.48 146.24 C32.08 176.59 11.43 202.44 -17.52 216.86 C-23.07 219.53 -28.62 221.96 -34.5 223.81 C-2.49 231.52 -2.49 231.52 28.5 222.81 C33.22 220.03 33.22 220.03 36.5 215.81 C39.5 216.81 39.5 216.81 40.88 219.08 C41.34 220.06 41.8 221.05 42.28 222.06 C42.79 223.15 43.3 224.23 43.83 225.35 C44.36 226.49 44.89 227.63 45.44 228.81 C46.23 230.48 46.23 230.48 47.03 232.18 C48.06 234.37 49.08 236.56 50.09 238.76 C50.97 240.67 51.87 242.57 52.81 244.46 C55.51 250.06 55.51 250.06 55.48 253.57 C50.22 265.64 37.44 276.02 25.56 281.06 C1.27 289.98 -21.81 282.51 -44.58 272.84 C-66.38 263.68 -88.4 258.8 -111.05 267.83 C-114.94 269.67 -118.26 271.98 -121.5 274.81 C-127.12 273.47 -129.12 269.68 -132 265.06 C-132.48 264.36 -132.96 263.65 -133.45 262.93 C-134.73 260.9 -135.76 259.09 -136.5 256.81 C-135.09 251.62 -131.26 248.07 -127.5 244.38 C-126.93 243.81 -126.35 243.24 -125.76 242.65 C-118.94 236.08 -111.37 231.17 -102.5 227.81 C-105.83 224.94 -109 223.91 -113.19 222.69 C-141.3 213.85 -165.58 192.71 -179.53 166.91 C-194.14 138 -197.85 103.27 -190.5 71.81 C-190.28 70.81 -190.28 70.81 -190.05 69.79 C-188.11 61.33 -185.38 53.58 -181.5 45.81 C-181.16 45.03 -180.81 44.25 -180.46 43.44 C-168.2 16.5 -142.63 -5.24 -115.51 -15.97 C-77.8 -29.86 -31.94 -25.34 0 0 Z " fill="#000100" transform="translate(714.5,138.1875)"/>
<path d="M0 0 C50 0 50 0 52 1 C52 84.16 52 167.32 52 253 C17.02 253 -17.96 253 -54 253 C-56.21 249.31 -57.67 246.54 -59.05 242.61 C-59.42 241.57 -59.78 240.54 -60.16 239.48 C-60.54 238.39 -60.92 237.31 -61.31 236.19 C-62.11 233.94 -62.91 231.7 -63.71 229.45 C-64.1 228.35 -64.48 227.26 -64.89 226.13 C-66.39 221.91 -67.93 217.7 -69.5 213.5 C-69.74 212.84 -69.99 212.19 -70.24 211.51 C-71.22 208.52 -71.22 208.52 -73 206 C-75.83 205.9 -78.64 205.87 -81.47 205.89 C-82.35 205.89 -83.24 205.89 -84.16 205.89 C-87.11 205.89 -90.05 205.89 -93 205.9 C-95.04 205.9 -97.08 205.91 -99.12 205.91 C-104.5 205.91 -109.88 205.92 -115.25 205.93 C-120.74 205.94 -126.22 205.95 -131.7 205.95 C-142.47 205.96 -153.23 205.98 -164 206 C-165.1 208.83 -166.2 211.66 -167.31 214.49 C-167.61 215.28 -167.92 216.07 -168.24 216.89 C-171.18 224.45 -174.07 232.04 -176.94 239.62 C-179.44 246.25 -179.44 246.25 -182 253 C-201.47 253 -220.94 253 -241 253 C-240.19 248.16 -239.09 244.24 -237.26 239.78 C-236.99 239.09 -236.71 238.4 -236.42 237.69 C-235.52 235.44 -234.6 233.19 -233.69 230.94 C-233.05 229.36 -232.42 227.78 -231.78 226.21 C-227.35 215.24 -222.83 204.32 -218.28 193.4 C-214.48 184.27 -210.88 175.07 -207.38 165.82 C-203.84 156.48 -199.99 147.28 -196.03 138.11 C-193.07 131.22 -190.27 124.28 -187.5 117.31 C-186.99 116.02 -186.47 114.73 -185.96 113.44 C-184.3 109.3 -182.65 105.15 -181 101 C-178.67 95.14 -176.34 89.29 -174 83.44 C-173.71 82.7 -173.41 81.97 -173.11 81.21 C-168.59 69.89 -163.98 58.6 -159.28 47.35 C-156.84 41.49 -154.44 35.62 -152.14 29.71 C-151.68 28.55 -151.23 27.39 -150.76 26.19 C-149.9 23.99 -149.05 21.79 -148.21 19.59 C-147.64 18.13 -147.64 18.13 -147.06 16.64 C-146.73 15.79 -146.4 14.94 -146.07 14.06 C-145 12 -145 12 -142 10 C-139.84 9.72 -139.84 9.72 -137.32 9.68 C-136.37 9.66 -135.42 9.64 -134.44 9.62 C-132.91 9.61 -132.91 9.61 -131.35 9.59 C-129.77 9.58 -129.77 9.58 -128.16 9.56 C-125.94 9.54 -123.71 9.53 -121.49 9.52 C-118.08 9.5 -114.67 9.44 -111.27 9.38 C-109.11 9.36 -106.95 9.35 -104.79 9.34 C-103.77 9.32 -102.75 9.29 -101.69 9.27 C-99 9.29 -96.62 9.37 -94 10 C-91.48 12.68 -91.48 12.68 -90 16 C-89.57 16.94 -89.13 17.88 -88.68 18.85 C-88.3 19.84 -87.91 20.83 -87.51 21.85 C-86.84 23.56 -86.84 23.56 -86.15 25.31 C-85.91 25.92 -85.67 26.52 -85.43 27.15 C-84.39 29.82 -83.34 32.49 -82.28 35.16 C-81.72 36.58 -81.16 38.01 -80.59 39.44 C-77.77 46.61 -74.88 53.75 -71.98 60.88 C-70.38 64.8 -68.79 68.72 -67.2 72.64 C-66.86 73.47 -66.53 74.3 -66.18 75.15 C-61.9 85.7 -57.64 96.26 -53.38 106.81 C-52.95 107.87 -52.52 108.92 -52.08 110.01 C-46.55 123.7 -41.04 137.39 -35.53 151.09 C-34.56 153.5 -33.59 155.91 -32.62 158.32 C-32.3 159.12 -31.98 159.92 -31.65 160.74 C-31 162.35 -30.35 163.96 -29.7 165.57 C-28.11 169.51 -26.53 173.45 -24.95 177.39 C-19.11 191.93 -13.26 206.47 -7.26 220.95 C-6.85 221.94 -6.45 222.93 -6.03 223.95 C-5.65 224.84 -5.28 225.74 -4.9 226.66 C-4.58 227.43 -4.26 228.2 -3.93 229 C-2.95 231.24 -2.95 231.24 -1 234 C-0.5 118.17 -0.5 118.17 0 0 Z " fill="#000100" transform="translate(384,109)"/>
<path d="M0 0 C1.15 0.24 2.3 0.49 3.49 0.74 C18.29 4.22 30.81 10.65 42 21 C43.18 22.05 43.18 22.05 44.39 23.11 C58.51 36.25 66.27 54.75 67.32 73.81 C67.99 93.82 63.38 113.52 49.5 128.56 C47.71 130.42 45.87 132.21 44 134 C42.93 135.03 42.93 135.03 41.84 136.08 C21.54 154.64 -4.59 158.85 -31.15 158.14 C-53.1 157.09 -71.68 149.43 -89 136 C-89.71 135.47 -90.42 134.94 -91.15 134.39 C-103.82 124.25 -111.51 107.98 -113.77 92.14 C-116.29 68.82 -112.14 48.03 -97.88 29.25 C-74.52 2.38 -34.22 -8.11 0 0 Z " fill="#000100" transform="translate(1055,209)"/>
<path d="M0 0 C0.95 -0.01 1.91 -0.01 2.89 -0.02 C3.93 -0.02 4.96 -0.02 6.02 -0.02 C7.08 -0.03 8.14 -0.03 9.23 -0.03 C11.47 -0.04 13.71 -0.04 15.95 -0.04 C19.38 -0.04 22.82 -0.06 26.26 -0.08 C28.43 -0.08 30.6 -0.08 32.77 -0.09 C33.81 -0.09 34.84 -0.1 35.9 -0.11 C36.86 -0.1 37.81 -0.1 38.8 -0.1 C40.06 -0.1 40.06 -0.1 41.35 -0.1 C43.4 0.15 43.4 0.15 45.4 2.15 C45.61 4.64 45.69 7.03 45.69 9.53 C45.69 10.29 45.7 11.05 45.71 11.83 C45.72 13.49 45.73 15.15 45.73 16.81 C45.74 19.44 45.76 22.07 45.79 24.7 C45.83 30.31 45.87 35.92 45.9 41.52 C45.93 47.98 45.98 54.45 46.03 60.91 C46.05 63.49 46.06 66.06 46.07 68.64 C46.02 87.14 46.02 87.14 52.4 104.15 C60.26 111.24 69.02 113.21 79.4 113.15 C86.11 112.33 92.1 110.78 97 105.93 C105.82 94.63 104.73 79.32 104.81 65.79 C104.83 63.92 104.85 62.06 104.87 60.19 C104.92 55.3 104.96 50.41 105 45.52 C105.04 40.52 105.09 35.52 105.14 30.52 C105.24 20.73 105.32 10.94 105.4 1.15 C107.8 -0.06 109.32 0.01 112 0 C112.95 -0.01 113.91 -0.01 114.89 -0.02 C115.93 -0.02 116.96 -0.02 118.02 -0.02 C119.61 -0.03 119.61 -0.03 121.23 -0.03 C123.47 -0.04 125.71 -0.04 127.95 -0.04 C131.38 -0.04 134.82 -0.06 138.26 -0.08 C140.43 -0.08 142.6 -0.08 144.77 -0.09 C145.81 -0.09 146.84 -0.1 147.9 -0.11 C148.86 -0.1 149.81 -0.1 150.8 -0.1 C151.64 -0.1 152.48 -0.1 153.35 -0.1 C155.4 0.15 155.4 0.15 157.4 2.15 C157.6 5.07 157.68 7.9 157.67 10.82 C157.68 11.72 157.68 12.62 157.69 13.55 C157.7 16.54 157.7 19.53 157.7 22.52 C157.7 24.61 157.71 26.7 157.71 28.78 C157.72 33.17 157.72 37.56 157.71 41.95 C157.71 47.53 157.73 53.11 157.75 58.69 C157.76 63.01 157.76 67.33 157.76 71.65 C157.76 73.71 157.77 75.76 157.78 77.82 C157.87 100.36 156.21 121.03 140.34 138.4 C121.91 156.22 93.3 156.59 69.36 156.36 C50.75 155.95 31.95 153.02 16.4 142.15 C15.61 141.61 14.82 141.08 14 140.52 C1.22 131.33 -3.43 116.9 -6 101.86 C-7.31 92.84 -6.97 83.67 -6.89 74.58 C-6.89 72.45 -6.88 70.32 -6.88 68.19 C-6.87 62.64 -6.84 57.09 -6.81 51.54 C-6.78 45.86 -6.76 40.17 -6.75 34.49 C-6.72 23.37 -6.67 12.26 -6.6 1.15 C-4.2 -0.06 -2.68 0.01 0 0 Z " fill="#000100" transform="translate(776.6015625,210.854736328125)"/>
<path d="M0 0 C12.71 9.95 20.48 27.43 23 43 C23.11 43.64 23.22 44.29 23.34 44.95 C26.49 67.28 23.17 91.01 10.12 109.7 C0.57 122.24 -11.52 127.73 -27 130 C-45.95 131.55 -63.18 127.81 -78.49 116.16 C-91.98 104.53 -97.1 86.46 -98.75 69.27 C-100.36 47.05 -95.13 24.2 -80.65 6.85 C-76.85 2.76 -72.82 -0.23 -68 -3 C-67.02 -3.59 -67.02 -3.59 -66.02 -4.2 C-46.72 -14.93 -17.63 -13.08 0 0 Z " fill="#458F4B" transform="translate(679,181)"/>
<path d="M0 0 C1.21 0 2.42 0.01 3.67 0.01 C4.94 0.02 6.21 0.03 7.52 0.04 C8.8 0.04 10.08 0.04 11.4 0.05 C14.57 0.06 17.73 0.08 20.9 0.1 C24.84 6.84 28.71 13.58 32.15 20.6 C35.55 27.51 39.22 34.26 42.93 41.01 C47.18 48.76 51.36 56.55 55.52 64.35 C59.73 72.22 63.96 80.07 68.34 87.85 C71.82 94.05 75.1 100.32 78.21 106.71 C79.75 109.85 81.35 112.92 83.12 115.93 C84.9 119.1 84.9 119.1 84.9 121.1 C69.06 121.1 53.22 121.1 36.9 121.1 C36.9 120.44 36.9 119.78 36.9 119.1 C36.24 119.1 35.58 119.1 34.9 119.1 C31.65 112.8 28.58 106.52 26.02 99.91 C20.36 85.7 13.85 71.72 6.9 58.1 C2.53 66.48 -1.23 75.11 -4.98 83.79 C-10.41 96.36 -15.97 108.84 -22.1 121.1 C-37.94 121.1 -53.78 121.1 -70.1 121.1 C-70.43 120.44 -70.76 119.78 -71.1 119.1 C-70.03 116.55 -70.03 116.55 -68.35 113.35 C-67.74 112.18 -67.13 111.01 -66.51 109.81 C-66.18 109.2 -65.86 108.59 -65.53 107.96 C-64.56 106.14 -63.61 104.31 -62.65 102.48 C-59.43 96.3 -56.05 90.27 -52.42 84.32 C-50.48 81.05 -48.81 77.66 -47.16 74.22 C-44.28 68.34 -41.16 62.69 -37.8 57.06 C-36.02 53.96 -34.43 50.81 -32.85 47.6 C-28.63 39.02 -23.98 30.68 -19.33 22.32 C-14.42 13.49 -14.42 13.49 -9.85 4.47 C-7.23 -0.58 -5.39 -0.03 0 0 Z " fill="#000100" transform="translate(841.1015625,75.90234375)"/>
<path d="M0 0 C0.95 -0.01 1.91 -0.01 2.89 -0.02 C3.93 -0.02 4.96 -0.02 6.02 -0.02 C7.08 -0.03 8.14 -0.03 9.23 -0.03 C11.47 -0.04 13.71 -0.04 15.95 -0.04 C19.38 -0.04 22.82 -0.06 26.26 -0.08 C28.43 -0.08 30.6 -0.08 32.77 -0.09 C33.81 -0.09 34.84 -0.1 35.9 -0.11 C36.86 -0.1 37.81 -0.1 38.8 -0.1 C40.06 -0.1 40.06 -0.1 41.35 -0.1 C43.4 0.15 43.4 0.15 45.4 2.15 C45.64 4.72 45.64 4.72 45.64 8.04 C45.64 9.3 45.64 10.56 45.65 11.85 C45.64 13.25 45.63 14.65 45.63 16.05 C45.62 17.52 45.63 18.99 45.63 20.45 C45.63 24.45 45.62 28.44 45.6 32.44 C45.59 36.61 45.59 40.78 45.59 44.95 C45.58 52.85 45.56 60.75 45.54 68.65 C45.52 77.65 45.51 86.64 45.5 95.63 C45.48 114.14 45.44 132.64 45.4 151.15 C38.15 151.17 30.91 151.19 23.66 151.2 C21.2 151.21 18.73 151.21 16.26 151.22 C12.73 151.23 9.19 151.24 5.65 151.24 C4.54 151.25 3.43 151.25 2.29 151.26 C0.76 151.26 0.76 151.26 -0.81 151.26 C-2.16 151.26 -2.16 151.26 -3.55 151.27 C-5.6 151.15 -5.6 151.15 -6.6 150.15 C-6.7 148.22 -6.72 146.29 -6.72 144.37 C-6.72 143.11 -6.72 141.86 -6.73 140.57 C-6.72 139.16 -6.72 137.76 -6.72 136.35 C-6.71 134.89 -6.71 133.42 -6.72 131.95 C-6.72 127.95 -6.71 123.95 -6.7 119.96 C-6.7 115.78 -6.7 111.61 -6.69 107.44 C-6.69 99.53 -6.68 91.62 -6.67 83.71 C-6.66 74.71 -6.66 65.71 -6.65 56.71 C-6.64 38.19 -6.62 19.67 -6.6 1.15 C-4.2 -0.06 -2.68 0.01 0 0 Z " fill="#000100" transform="translate(463.6015625,210.854736328125)"/>
<path d="M0 0 C2.04 1.71 3.82 3.48 5.59 5.46 C6.16 6.08 6.72 6.7 7.3 7.34 C15.07 16.71 15.62 27.77 14.59 39.46 C12.64 48.95 7.65 55.93 -0.34 61.33 C-9.97 66.78 -21.61 66.81 -32.22 64.39 C-40.16 61.92 -46.79 56.31 -51.41 49.46 C-55.96 40.54 -56.93 31.17 -54.71 21.4 C-51.79 12.54 -46.35 4.54 -38.41 -0.54 C-25.57 -6.32 -12.45 -7.99 0 0 Z " fill="#743A54" transform="translate(1051.40625,256.54296875)"/>
<path d="M0 0 C3.2 2.68 5.61 5.59 8 9 C8.53 9.73 9.06 10.46 9.6 11.21 C14.2 18.74 14.22 27.46 13 36 C10.67 44.66 4.57 50.4 -2.8 55.16 C-10.26 58.71 -20.71 58.37 -28.46 55.9 C-36.78 51.98 -42.9 47.37 -46.44 38.75 C-49.32 29.66 -48.83 20.75 -45 12 C-40.67 3.99 -33.84 -0.07 -25.56 -3.38 C-16.51 -4.96 -8.15 -4.59 0 0 Z " fill="#000100" transform="translate(501,122)"/>
<path d="M0 0 C0.66 0 1.32 0 2 0 C2.33 0.89 2.66 1.78 3.01 2.69 C7.54 14.8 12.11 26.9 16.69 39 C17.83 42.02 18.97 45.04 20.11 48.06 C20.82 49.92 21.52 51.78 22.22 53.64 C24.16 58.76 26.08 63.88 28 69 C20.49 69.05 12.98 69.09 5.47 69.11 C2.91 69.12 0.35 69.13 -2.21 69.15 C-5.87 69.18 -9.54 69.19 -13.21 69.2 C-14.93 69.21 -14.93 69.21 -16.69 69.23 C-17.75 69.23 -18.81 69.23 -19.91 69.23 C-21.31 69.23 -21.31 69.23 -22.75 69.24 C-25 69 -25 69 -27 67 C-26.42 65.89 -25.84 64.78 -25.24 63.63 C-22.85 58.83 -20.96 53.9 -19.1 48.87 C-18.74 47.91 -18.39 46.96 -18.02 45.98 C-16.88 42.94 -15.75 39.91 -14.62 36.88 C-5.37 12.01 -5.37 12.01 0 0 Z " fill="#FCFDFF" transform="translate(265,196)"/>
</svg>
